<?xml version="1.0" encoding="UTF-8"?>
<svg xmlns="http://www.w3.org/2000/svg" xmlns:xlink="http://www.w3.org/1999/xlink" width="250" height="250" viewBox="0 0 420.93 72.27" version="1.1">
<defs>
<clipPath id="clip1">
  <path d="M 0 0 L 73 0 L 73 72.269531 L 0 72.269531 Z M 0 0 "/>
</clipPath>
<clipPath id="clip2">
  <path d="M 390 26 L 420.929688 26 L 420.929688 59 L 390 59 Z M 390 26 "/>
</clipPath>
</defs>
<g id="surface1">
<g clip-path="url(#clip1)" clip-rule="nonzero">
<path style=" stroke:none;fill-rule:nonzero;fill:rgb(40.39917%,16.499329%,47.799683%);fill-opacity:1;" d="M 35.402344 36.214844 L 54.082031 50.964844 L 54.082031 21.464844 Z M 7.210938 25.398438 L 7.210938 47.359375 L 18.027344 36.214844 Z M 54.246094 -0.00390625 L 72.109375 7.207031 L 72.109375 65.058594 L 54.082031 72.269531 L 25.402344 43.753906 L 7.210938 57.847656 L 0 54.246094 L 0 18.019531 L 7.210938 14.582031 L 25.402344 28.839844 L 54.246094 -0.00390625 "/>
</g>
<path style=" stroke:none;fill-rule:nonzero;fill:rgb(40.39917%,16.499329%,47.799683%);fill-opacity:1;" d="M 131.460938 14.304688 L 115.324219 57.882813 L 109.703125 57.882813 L 93.902344 14.304688 L 99.585938 14.304688 L 111.648438 48.855469 C 112.03125 49.976563 112.328125 51.257813 112.527344 52.71875 L 112.652344 52.71875 C 112.8125 51.503906 113.148438 50.195313 113.65625 48.796875 L 125.964844 14.304688 L 131.460938 14.304688 "/>
<path style=" stroke:none;fill-rule:nonzero;fill:rgb(40.39917%,16.499329%,47.799683%);fill-opacity:1;" d="M 140.171875 57.882813 L 135.1875 57.882813 L 135.1875 26.765625 L 140.171875 26.765625 Z M 137.738281 18.863281 C 136.847656 18.863281 136.085938 18.558594 135.460938 17.949219 C 134.832031 17.34375 134.519531 16.574219 134.519531 15.644531 C 134.519531 14.714844 134.832031 13.933594 135.460938 13.316406 C 136.089844 12.699219 136.847656 12.390625 137.738281 12.390625 C 138.652344 12.390625 139.425781 12.699219 140.0625 13.316406 C 140.699219 13.9375 141.023438 14.710938 141.023438 15.644531 C 141.023438 16.535156 140.703125 17.292969 140.0625 17.921875 C 139.425781 18.550781 138.652344 18.863281 137.738281 18.863281 "/>
<path style=" stroke:none;fill-rule:nonzero;fill:rgb(40.39917%,16.499329%,47.799683%);fill-opacity:1;" d="M 146.507813 56.757813 L 146.507813 51.410156 C 149.222656 53.417969 152.210938 54.417969 155.472656 54.417969 C 159.851563 54.417969 162.039063 52.957031 162.039063 50.042969 C 162.039063 49.210938 161.851563 48.507813 161.476563 47.929688 C 161.101563 47.351563 160.59375 46.839844 159.953125 46.394531 C 159.316406 45.949219 158.566406 45.546875 157.707031 45.195313 C 156.847656 44.839844 155.917969 44.46875 154.925781 44.082031 C 153.546875 43.535156 152.339844 42.984375 151.296875 42.425781 C 150.25 41.871094 149.382813 41.242188 148.679688 40.542969 C 147.980469 39.847656 147.457031 39.050781 147.101563 38.160156 C 146.746094 37.269531 146.570313 36.226563 146.570313 35.027344 C 146.570313 33.570313 146.902344 32.277344 147.574219 31.152344 C 148.242188 30.027344 149.132813 29.089844 150.246094 28.324219 C 151.359375 27.570313 152.632813 26.996094 154.0625 26.609375 C 155.488281 26.226563 156.964844 26.035156 158.480469 26.035156 C 161.175781 26.035156 163.589844 26.5 165.714844 27.433594 L 165.714844 32.476563 C 163.425781 30.976563 160.792969 30.226563 157.8125 30.226563 C 156.882813 30.226563 156.039063 30.332031 155.292969 30.546875 C 154.539063 30.757813 153.898438 31.058594 153.363281 31.441406 C 152.828125 31.828125 152.410156 32.289063 152.117188 32.824219 C 151.824219 33.363281 151.675781 33.953125 151.675781 34.605469 C 151.675781 35.410156 151.824219 36.089844 152.117188 36.640625 C 152.410156 37.183594 152.839844 37.675781 153.410156 38.101563 C 153.976563 38.523438 154.664063 38.910156 155.476563 39.253906 C 156.285156 39.597656 157.207031 39.972656 158.238281 40.378906 C 159.617188 40.90625 160.851563 41.445313 161.945313 42.003906 C 163.039063 42.5625 163.972656 43.191406 164.742188 43.890625 C 165.511719 44.589844 166.105469 45.394531 166.523438 46.304688 C 166.9375 47.21875 167.144531 48.300781 167.144531 49.554688 C 167.144531 51.097656 166.804688 52.433594 166.128906 53.566406 C 165.449219 54.703125 164.539063 55.644531 163.410156 56.390625 C 162.273438 57.140625 160.96875 57.699219 159.488281 58.0625 C 158.007813 58.429688 156.460938 58.609375 154.839844 58.609375 C 151.632813 58.613281 148.859375 57.996094 146.507813 56.757813 "/>
<path style=" stroke:none;fill-rule:nonzero;fill:rgb(40.39917%,16.499329%,47.799683%);fill-opacity:1;" d="M 198.09375 57.882813 L 193.109375 57.882813 L 193.109375 52.960938 L 192.988281 52.960938 C 190.925781 56.730469 187.722656 58.613281 183.386719 58.613281 C 175.972656 58.613281 172.265625 54.195313 172.265625 45.363281 L 172.265625 26.761719 L 177.21875 26.761719 L 177.21875 44.570313 C 177.21875 51.136719 179.726563 54.417969 184.753906 54.417969 C 187.183594 54.417969 189.1875 53.519531 190.757813 51.726563 C 192.324219 49.933594 193.109375 47.589844 193.109375 44.691406 L 193.109375 26.761719 L 198.09375 26.761719 L 198.09375 57.882813 "/>
<path style=" stroke:none;fill-rule:nonzero;fill:rgb(40.39917%,16.499329%,47.799683%);fill-opacity:1;" d="M 223.574219 42.140625 L 216.070313 43.175781 C 213.761719 43.5 212.019531 44.070313 210.847656 44.894531 C 209.671875 45.710938 209.082031 47.167969 209.082031 49.253906 C 209.082031 50.773438 209.625 52.011719 210.710938 52.972656 C 211.792969 53.9375 213.234375 54.417969 215.039063 54.417969 C 217.507813 54.417969 219.550781 53.550781 221.160156 51.820313 C 222.773438 50.089844 223.574219 47.894531 223.574219 45.242188 Z M 228.5625 57.882813 L 223.578125 57.882813 L 223.578125 53.019531 L 223.457031 53.019531 C 221.289063 56.746094 218.097656 58.613281 213.882813 58.613281 C 210.785156 58.613281 208.359375 57.792969 206.605469 56.148438 C 204.855469 54.511719 203.976563 52.332031 203.976563 49.617188 C 203.976563 43.800781 207.398438 40.417969 214.246094 39.464844 L 223.574219 38.160156 C 223.574219 32.871094 221.4375 30.226563 217.164063 30.226563 C 213.417969 30.226563 210.035156 31.507813 207.019531 34.058594 L 207.019531 28.953125 C 210.074219 27.007813 213.597656 26.035156 217.59375 26.035156 C 224.90625 26.035156 228.5625 29.90625 228.5625 37.644531 L 228.5625 57.882813 "/>
<path style=" stroke:none;fill-rule:nonzero;fill:rgb(40.39917%,16.499329%,47.799683%);fill-opacity:1;" d="M 241.066406 57.882813 L 236.085938 57.882813 L 236.085938 11.8125 L 241.066406 11.8125 L 241.066406 57.882813 "/>
<path style=" stroke:none;fill-rule:nonzero;fill:rgb(40.39917%,16.499329%,47.799683%);fill-opacity:1;" d="M 256.640625 56.121094 L 256.640625 50.105469 C 257.324219 50.710938 258.152344 51.257813 259.113281 51.742188 C 260.074219 52.230469 261.085938 52.640625 262.152344 52.972656 C 263.214844 53.308594 264.285156 53.566406 265.359375 53.75 C 266.433594 53.933594 267.425781 54.023438 268.335938 54.023438 C 271.476563 54.023438 273.820313 53.441406 275.371094 52.277344 C 276.921875 51.113281 277.695313 49.433594 277.695313 47.246094 C 277.695313 46.074219 277.4375 45.050781 276.921875 44.179688 C 276.40625 43.308594 275.691406 42.511719 274.78125 41.796875 C 273.867188 41.074219 272.789063 40.386719 271.542969 39.730469 C 270.300781 39.070313 268.957031 38.375 267.515625 37.648438 C 266 36.875 264.578125 36.097656 263.261719 35.308594 C 261.945313 34.511719 260.800781 33.644531 259.828125 32.691406 C 258.859375 31.742188 258.09375 30.664063 257.53125 29.457031 C 256.976563 28.25 256.699219 26.835938 256.699219 25.21875 C 256.699219 23.234375 257.132813 21.503906 258.003906 20.035156 C 258.875 18.570313 260.019531 17.359375 261.4375 16.402344 C 262.859375 15.453125 264.472656 14.742188 266.285156 14.277344 C 268.097656 13.8125 269.945313 13.578125 271.832031 13.578125 C 276.128906 13.578125 279.257813 14.09375 281.222656 15.128906 L 281.222656 20.867188 C 278.648438 19.085938 275.347656 18.195313 271.316406 18.195313 C 270.199219 18.195313 269.085938 18.3125 267.972656 18.542969 C 266.855469 18.777344 265.863281 19.160156 264.996094 19.683594 C 264.125 20.210938 263.414063 20.890625 262.867188 21.71875 C 262.320313 22.550781 262.046875 23.5625 262.046875 24.757813 C 262.046875 25.875 262.253906 26.835938 262.667969 27.648438 C 263.085938 28.457031 263.695313 29.195313 264.507813 29.863281 C 265.316406 30.53125 266.308594 31.179688 267.472656 31.808594 C 268.636719 32.4375 269.980469 33.125 271.5 33.875 C 273.058594 34.644531 274.539063 35.453125 275.933594 36.304688 C 277.335938 37.15625 278.558594 38.101563 279.613281 39.128906 C 280.664063 40.164063 281.5 41.308594 282.117188 42.566406 C 282.738281 43.824219 283.046875 45.257813 283.046875 46.878906 C 283.046875 49.027344 282.625 50.847656 281.785156 52.335938 C 280.945313 53.824219 279.8125 55.035156 278.382813 55.96875 C 276.953125 56.898438 275.308594 57.574219 273.445313 57.988281 C 271.578125 58.402344 269.617188 58.613281 267.546875 58.613281 C 266.855469 58.613281 266.007813 58.554688 264.996094 58.445313 C 263.984375 58.335938 262.949219 58.167969 261.898438 57.960938 C 260.84375 57.746094 259.847656 57.484375 258.902344 57.171875 C 257.960938 56.855469 257.203125 56.503906 256.640625 56.121094 "/>
<path style=" stroke:none;fill-rule:nonzero;fill:rgb(40.39917%,16.499329%,47.799683%);fill-opacity:1;" d="M 302.5625 57.582031 C 301.390625 58.230469 299.839844 58.550781 297.917969 58.550781 C 292.464844 58.550781 289.742188 55.511719 289.742188 49.433594 L 289.742188 31.019531 L 284.394531 31.019531 L 284.394531 26.765625 L 289.742188 26.765625 L 289.742188 19.167969 L 294.726563 17.558594 L 294.726563 26.765625 L 302.5625 26.765625 L 302.5625 31.019531 L 294.726563 31.019531 L 294.726563 48.554688 C 294.726563 50.640625 295.078125 52.128906 295.789063 53.019531 C 296.496094 53.914063 297.667969 54.359375 299.3125 54.359375 C 300.566406 54.359375 301.652344 54.011719 302.5625 53.324219 L 302.5625 57.582031 "/>
<path style=" stroke:none;fill-rule:nonzero;fill:rgb(40.39917%,16.499329%,47.799683%);fill-opacity:1;" d="M 333.445313 57.882813 L 328.460938 57.882813 L 328.460938 52.960938 L 328.339844 52.960938 C 326.273438 56.730469 323.074219 58.613281 318.738281 58.613281 C 311.324219 58.613281 307.617188 54.195313 307.617188 45.363281 L 307.617188 26.761719 L 312.570313 26.761719 L 312.570313 44.570313 C 312.570313 51.136719 315.082031 54.417969 320.105469 54.417969 C 322.539063 54.417969 324.539063 53.519531 326.109375 51.726563 C 327.679688 49.933594 328.460938 47.589844 328.460938 44.691406 L 328.460938 26.761719 L 333.445313 26.761719 L 333.445313 57.882813 "/>
<path style=" stroke:none;fill-rule:nonzero;fill:rgb(40.39917%,16.499329%,47.799683%);fill-opacity:1;" d="M 364.148438 43.816406 L 364.148438 39.226563 C 364.148438 36.714844 363.316406 34.585938 361.660156 32.84375 C 359.996094 31.101563 357.890625 30.226563 355.339844 30.226563 C 352.300781 30.226563 349.910156 31.34375 348.167969 33.574219 C 346.425781 35.800781 345.554688 38.878906 345.554688 42.8125 C 345.554688 46.394531 346.386719 49.226563 348.058594 51.304688 C 349.730469 53.378906 351.972656 54.417969 354.792969 54.417969 C 357.570313 54.417969 359.820313 53.417969 361.554688 51.410156 C 363.28125 49.40625 364.148438 46.871094 364.148438 43.816406 Z M 369.132813 57.882813 L 364.148438 57.882813 L 364.148438 52.597656 L 364.027344 52.597656 C 361.71875 56.605469 358.148438 58.613281 353.332031 58.613281 C 349.421875 58.613281 346.296875 57.222656 343.953125 54.433594 C 341.617188 51.648438 340.445313 47.855469 340.445313 43.054688 C 340.445313 37.90625 341.742188 33.785156 344.335938 30.6875 C 346.925781 27.585938 350.382813 26.035156 354.699219 26.035156 C 358.972656 26.035156 362.082031 27.71875 364.027344 31.082031 L 364.148438 31.082031 L 364.148438 11.8125 L 369.132813 11.8125 L 369.132813 57.882813 "/>
<path style=" stroke:none;fill-rule:nonzero;fill:rgb(40.39917%,16.499329%,47.799683%);fill-opacity:1;" d="M 383.273438 57.882813 L 378.289063 57.882813 L 378.289063 26.765625 L 383.273438 26.765625 Z M 380.839844 18.863281 C 379.949219 18.863281 379.191406 18.558594 378.5625 17.949219 C 377.933594 17.34375 377.617188 16.574219 377.617188 15.644531 C 377.617188 14.714844 377.933594 13.933594 378.5625 13.316406 C 379.191406 12.699219 379.949219 12.390625 380.839844 12.390625 C 381.75 12.390625 382.527344 12.699219 383.167969 13.316406 C 383.800781 13.9375 384.125 14.710938 384.125 15.644531 C 384.125 16.535156 383.804688 17.292969 383.167969 17.921875 C 382.527344 18.550781 381.75 18.863281 380.839844 18.863281 "/>
<g clip-path="url(#clip2)" clip-rule="nonzero">
<path style=" stroke:none;fill-rule:nonzero;fill:rgb(40.39917%,16.499329%,47.799683%);fill-opacity:1;" d="M 405.800781 30.230469 C 402.597656 30.230469 400.066406 31.320313 398.199219 33.496094 C 396.335938 35.675781 395.40625 38.679688 395.40625 42.507813 C 395.40625 46.195313 396.347656 49.101563 398.230469 51.230469 C 400.113281 53.355469 402.640625 54.421875 405.800781 54.421875 C 409.019531 54.421875 411.496094 53.375 413.230469 51.289063 C 414.960938 49.203125 415.824219 46.234375 415.824219 42.386719 C 415.824219 38.492188 414.960938 35.496094 413.230469 33.390625 C 411.496094 31.28125 409.019531 30.230469 405.800781 30.230469 Z M 405.433594 58.613281 C 400.835938 58.613281 397.164063 57.15625 394.417969 54.253906 C 391.671875 51.34375 390.300781 47.492188 390.300781 42.6875 C 390.300781 37.460938 391.726563 33.378906 394.585938 30.441406 C 397.441406 27.503906 401.300781 26.035156 406.164063 26.035156 C 410.804688 26.035156 414.425781 27.464844 417.027344 30.320313 C 419.628906 33.175781 420.929688 37.140625 420.929688 42.203125 C 420.929688 47.167969 419.53125 51.144531 416.722656 54.128906 C 413.917969 57.117188 410.152344 58.613281 405.433594 58.613281 "/>
</g>
</g>
</svg>
